<svg width="256" height="256" viewBox="0 0 256 256" fill="none" xmlns="http://www.w3.org/2000/svg">
<g filter="url(#filter0_i_5_5)">
<g clip-path="url(#clip0_5_5)">
<rect width="256" height="256" rx="45" fill="#131313"/>
<path d="M91.1245 89.5322C88.3901 102.862 85.5532 116.056 82.6138 129.112C79.7427 142.169 76.769 155.294 73.6929 168.487L40.8804 169C39.1714 161.617 37.4282 154.269 35.6509 146.954C33.9419 139.571 31.9937 132.223 29.8062 124.908C28.2339 119.371 26.5933 113.902 24.8843 108.502C23.2437 103.102 21.5347 97.667 19.7573 92.1982C22.1499 92.4717 24.5425 92.7109 26.9351 92.916C29.396 93.1211 31.8228 93.2236 34.2153 93.2236C34.7622 93.2236 35.2749 93.2236 35.7534 93.2236C36.2319 93.2236 36.7446 93.1553 37.2915 93.0186C40.0259 101.632 42.8628 110.108 45.8022 118.448C48.7417 126.72 51.7495 135.094 54.8257 143.57C56.8765 138.648 58.8589 133.727 60.7729 128.805C62.7554 123.814 64.7378 118.824 66.7202 113.834C66.8569 113.492 67.1646 112.638 67.6431 111.271C68.1216 109.903 68.6685 108.331 69.2837 106.554C69.9673 104.708 70.6509 102.794 71.3345 100.812C72.0864 98.7607 72.7358 96.8809 73.2827 95.1719C73.8979 93.4629 74.3765 92.0615 74.7183 90.9678C75.1284 89.8057 75.3335 89.2246 75.3335 89.2246C76.0854 89.3613 76.8032 89.4297 77.4868 89.4297C78.2388 89.4297 78.9907 89.4297 79.7427 89.4297C81.7251 89.498 83.6392 89.5322 85.4849 89.5322C87.3306 89.5322 89.2104 89.5322 91.1245 89.5322ZM173.156 128.395C173.156 128.941 173.156 129.488 173.156 130.035C173.156 130.514 173.122 131.026 173.053 131.573C172.985 132.53 172.814 134.103 172.541 136.29C172.267 138.478 171.891 140.768 171.413 143.16C170.934 145.484 170.353 147.638 169.669 149.62C168.986 151.603 168.234 152.867 167.414 153.414C167.003 153.688 165.602 153.927 163.209 154.132C160.885 154.337 158.014 154.542 154.596 154.747C151.247 154.952 147.589 155.123 143.625 155.26C139.66 155.396 135.866 155.533 132.243 155.67C128.688 155.738 125.543 155.807 122.809 155.875C120.143 155.943 118.366 155.978 117.477 155.978C117.067 155.978 116.349 155.978 115.324 155.978C114.367 155.978 113.341 155.978 112.248 155.978C111.154 155.909 110.128 155.841 109.171 155.772C108.214 155.704 107.531 155.602 107.121 155.465C106.164 155.123 105.207 154.576 104.25 153.824C103.292 153.004 102.404 152.115 101.583 151.158C100.763 150.133 100.011 149.107 99.3276 148.082C98.7124 146.988 98.2681 145.963 97.9946 145.006C97.7896 144.254 97.6187 143.126 97.4819 141.622C97.3452 140.05 97.2427 138.443 97.1743 136.803C97.106 135.094 97.0376 133.453 96.9692 131.881C96.9692 130.309 96.9692 129.112 96.9692 128.292C96.9692 126.993 97.0034 125.216 97.0718 122.96C97.1401 120.636 97.3452 118.277 97.687 115.885C98.0288 113.492 98.5073 111.271 99.1226 109.22C99.8062 107.101 100.763 105.631 101.994 104.811C102.541 104.469 103.566 104.161 105.07 103.888C106.574 103.614 108.351 103.375 110.402 103.17C112.453 102.965 114.64 102.828 116.964 102.76C119.289 102.623 121.544 102.555 123.732 102.555C125.988 102.486 128.073 102.452 129.987 102.452C131.901 102.452 133.439 102.486 134.601 102.555C135.626 102.623 137.096 102.691 139.01 102.76C140.924 102.76 143.043 102.794 145.368 102.862C147.76 102.931 150.221 103.067 152.75 103.272C155.28 103.409 157.638 103.614 159.826 103.888C162.013 104.161 163.927 104.537 165.568 105.016C167.277 105.426 168.405 105.938 168.952 106.554C169.84 107.511 170.558 108.946 171.105 110.86C171.652 112.774 172.062 114.825 172.335 117.013C172.677 119.132 172.882 121.251 172.951 123.37C173.087 125.421 173.156 127.096 173.156 128.395ZM151.417 130.548C151.417 129.728 151.383 128.771 151.315 127.677C151.247 126.583 151.144 125.489 151.007 124.396C150.871 123.233 150.666 122.14 150.392 121.114C150.119 120.021 149.777 119.132 149.367 118.448C148.82 117.56 147.76 116.876 146.188 116.397C144.616 115.919 142.873 115.577 140.958 115.372C139.113 115.099 137.267 114.928 135.421 114.859C133.644 114.791 132.311 114.757 131.422 114.757C130.944 114.757 130.089 114.791 128.859 114.859C127.628 114.859 126.33 114.894 124.962 114.962C123.664 115.03 122.433 115.167 121.271 115.372C120.109 115.509 119.357 115.68 119.015 115.885C118.4 116.295 117.921 116.944 117.58 117.833C117.238 118.653 116.964 119.576 116.759 120.602C116.623 121.627 116.52 122.652 116.452 123.678C116.452 124.635 116.452 125.421 116.452 126.036C116.452 126.651 116.486 127.779 116.554 129.42C116.691 130.992 116.828 132.701 116.964 134.547C117.169 136.324 117.409 137.965 117.682 139.469C117.956 140.973 118.297 141.93 118.708 142.34C119.186 142.887 120.075 143.331 121.374 143.673C122.741 144.015 124.176 144.322 125.68 144.596C127.252 144.801 128.756 144.972 130.192 145.108C131.627 145.177 132.653 145.211 133.268 145.211C134.362 145.211 135.661 145.177 137.165 145.108C138.668 145.04 140.172 144.869 141.676 144.596C143.249 144.322 144.718 143.946 146.085 143.468C147.453 142.989 148.546 142.34 149.367 141.52C149.845 141.041 150.221 140.323 150.495 139.366C150.768 138.409 150.973 137.384 151.11 136.29C151.247 135.196 151.315 134.137 151.315 133.111C151.383 132.018 151.417 131.163 151.417 130.548ZM235.192 166.437C227.057 167.052 218.957 167.633 210.89 168.18C202.892 168.727 194.826 169.239 186.691 169.718C186.349 156.661 186.076 143.707 185.871 130.855C185.666 117.936 185.29 104.913 184.743 91.7881C189.323 91.7197 193.834 91.583 198.278 91.3779C202.721 91.1729 207.199 90.8994 211.71 90.5576C210.958 95.6162 210.241 100.709 209.557 105.836C208.942 110.895 208.463 115.987 208.122 121.114C207.848 125.421 207.609 129.728 207.404 134.034C207.267 138.272 207.13 142.545 206.994 146.852C211.505 146.988 215.949 147.057 220.324 147.057C224.767 147.057 229.21 147.125 233.654 147.262L235.192 166.437Z" fill="white"/>
</g>
</g>
<defs>
<filter id="filter0_i_5_5" x="0" y="0" width="258" height="259" filterUnits="userSpaceOnUse" color-interpolation-filters="sRGB">
<feFlood flood-opacity="0" result="BackgroundImageFix"/>
<feBlend mode="normal" in="SourceGraphic" in2="BackgroundImageFix" result="shape"/>
<feColorMatrix in="SourceAlpha" type="matrix" values="0 0 0 0 0 0 0 0 0 0 0 0 0 0 0 0 0 0 127 0" result="hardAlpha"/>
<feOffset dx="2" dy="3"/>
<feGaussianBlur stdDeviation="2"/>
<feComposite in2="hardAlpha" operator="arithmetic" k2="-1" k3="1"/>
<feColorMatrix type="matrix" values="0 0 0 0 1 0 0 0 0 1 0 0 0 0 1 0 0 0 0.25 0"/>
<feBlend mode="normal" in2="shape" result="effect1_innerShadow_5_5"/>
</filter>
<clipPath id="clip0_5_5">
<rect width="256" height="256" rx="45" fill="white"/>
</clipPath>
</defs>
</svg>
